<?xml version="1.0" standalone="no"?>
<!DOCTYPE svg PUBLIC "-//W3C//DTD SVG 20010904//EN"
 "http://www.w3.org/TR/2001/REC-SVG-20010904/DTD/svg10.dtd">
<svg version="1.0" xmlns="http://www.w3.org/2000/svg"
 width="64.000000pt" height="64.000000pt" viewBox="0 0 64.000000 64.000000"
 preserveAspectRatio="xMidYMid meet">
<metadata>
Created by potrace 1.14, written by Peter Selinger 2001-2017
</metadata>
<g transform="translate(0.000000,64.000000) scale(0.100000,-0.100000)"
fill="#000000" stroke="none">
<path d="M338 486 l-3 -149 -74 134 c-41 74 -78 140 -84 147 -7 9 -32 -28 -93
-135 l-82 -148 70 -3 69 -3 -43 -23 c-80 -42 -108 -129 -67 -212 46 -96 182
-116 250 -38 75 85 43 221 -61 263 -18 7 39 10 198 10 l222 1 0 153 0 153
-150 0 -150 0 -2 -150z"/>
</g>
</svg>
